<?xml version="1.0" encoding="UTF-8" standalone="no"?>
<svg
   xmlns:dc="http://purl.org/dc/elements/1.1/"
   xmlns:cc="http://creativecommons.org/ns#"
   xmlns:rdf="http://www.w3.org/1999/02/22-rdf-syntax-ns#"
   xmlns:svg="http://www.w3.org/2000/svg"
   xmlns="http://www.w3.org/2000/svg"
   xmlns:sodipodi="http://sodipodi.sourceforge.net/DTD/sodipodi-0.dtd"
   xmlns:inkscape="http://www.inkscape.org/namespaces/inkscape"
   sodipodi:docname="RedGuitarLoopTransp8forFavicon.svg"
   inkscape:version="1.0 (4035a4fb49, 2020-05-01)"
   inkscape:export-ydpi="12.377665"
   inkscape:export-xdpi="12.377665"
   inkscape:export-filename="A:\Stephan\Source\Workspaces\ChromeExtensions\VidoControlOnPageRange\PM0.1.0\images\GuitarLoop96x96.png"
   id="svg2456"
   version="1.1"
   viewBox="0 0 197 197"
   height="197mm"
   width="197mm">
  <defs
     id="defs2450" />
  <sodipodi:namedview
     inkscape:window-maximized="1"
     inkscape:window-y="-9"
     inkscape:window-x="-9"
     inkscape:window-height="1001"
     inkscape:window-width="1920"
     fit-margin-bottom="0"
     fit-margin-right="0"
     fit-margin-left="0"
     fit-margin-top="0"
     showgrid="false"
     inkscape:document-rotation="0"
     inkscape:current-layer="layer1"
     inkscape:document-units="mm"
     inkscape:cy="239.56796"
     inkscape:cx="753.23516"
     inkscape:zoom="0.7"
     inkscape:pageshadow="2"
     inkscape:pageopacity="0.0"
     borderopacity="1.0"
     bordercolor="#666666"
     pagecolor="#ffffff"
     id="base" />
  <metadata
     id="metadata2453">
    <rdf:RDF>
      <cc:Work
         rdf:about="">
        <dc:format>image/svg+xml</dc:format>
        <dc:type
           rdf:resource="http://purl.org/dc/dcmitype/StillImage" />
        <dc:title></dc:title>
      </cc:Work>
    </rdf:RDF>
  </metadata>
  <g
     transform="translate(-3.4546821,-2.2749366)"
     id="layer1"
     inkscape:groupmode="layer"
     inkscape:label="Layer 1">
    <rect
       style="fill:#f0f0f0;fill-opacity:1;stroke:#000000;stroke-width:1.82989;stroke-miterlimit:4;stroke-dasharray:none;stroke-opacity:0"
       id="rect2801"
       width="173.1701"
       height="173.1701"
       x="5.7002544"
       y="5.8700223"
       rx="5.3404852e-17" />
    <g
       style="opacity:1"
       id="g837">
      <path
         sodipodi:nodetypes="cccccccccccccccccccccccccccccccccccc"
         id="path839"
         d="m 97.918814,57.969187 h 50.040396 c 0.0917,7.517829 -0.18804,15.051581 0.14824,22.558921 1.77129,9.617309 15.77967,11.556032 21.2106,3.991922 8.62082,-8.828193 17.61958,-17.322428 25.99899,-26.364013 3.59494,-4.902909 0.88487,-11.237357 -3.48304,-14.564583 -8.41494,-8.314466 -16.58092,-16.902326 -25.15378,-25.043417 -7.28104,-5.869318 -20.27555,0.161608 -18.72101,9.935479 V 47.547454 H 97.918814 c -6.299734,2.267283 -6.986176,8.25707 0,10.421733 z M 159.49419,26.704002 c 8.65124,8.684775 17.30247,17.36955 25.95371,26.054325 -8.65124,8.684804 -17.30247,17.369609 -25.95371,26.054413 z m 28.618,64.384639 c -3.6371,-4.700512 -11.84048,1.790025 -9.13571,6.37879 6.17272,7.381009 9.03727,12.165559 8.38494,22.516529 0.75912,11.78068 0.0197,26.60584 -11.16995,33.51217 -8.82226,4.92197 -19.21568,2.67684 -28.8491,3.19316 h -18.89512 c -0.0917,-7.51783 0.18804,-15.05159 -0.14824,-22.55894 -1.77128,-9.61732 -15.77969,-11.55603 -21.2106,-3.99189 -8.620824,8.82829 -17.619568,17.32266 -25.998996,26.36434 -3.594941,4.90293 -0.88488,11.2374 3.483041,14.56466 8.414953,8.31446 16.580815,16.90247 25.153775,25.04346 7.28127,5.86922 20.27576,-0.16163 18.72102,-9.93575 v -19.06409 c 13.77914,-0.18869 27.59227,0.42996 41.34424,-0.41943 11.27285,-0.8477 21.53941,-8.62431 24.80986,-19.53749 3.75714,-11.58523 4.27317,-24.08011 3.49117,-36.14096 -1.70691,-9.19875 -4.52732,-12.789702 -9.98033,-19.924559 z m -71.19992,96.866019 c -8.65124,-8.68483 -17.302478,-17.36965 -25.953717,-26.05448 l 25.953717,-26.05446 z"
         style="color:#000000;font-style:normal;font-variant:normal;font-weight:normal;font-stretch:normal;font-size:medium;line-height:normal;font-family:sans-serif;font-variant-ligatures:normal;font-variant-position:normal;font-variant-caps:normal;font-variant-numeric:normal;font-variant-alternates:normal;font-variant-east-asian:normal;font-feature-settings:normal;font-variation-settings:normal;text-indent:0;text-align:start;text-decoration:none;text-decoration-line:none;text-decoration-style:solid;text-decoration-color:#000000;letter-spacing:normal;word-spacing:normal;text-transform:none;writing-mode:lr-tb;direction:ltr;text-orientation:mixed;dominant-baseline:auto;baseline-shift:baseline;text-anchor:start;white-space:normal;shape-padding:0;shape-margin:0;inline-size:0;clip-rule:nonzero;display:inline;overflow:visible;visibility:visible;isolation:auto;mix-blend-mode:normal;color-interpolation:sRGB;color-interpolation-filters:linearRGB;solid-color:#000000;solid-opacity:1;vector-effect:none;fill:#383838;fill-opacity:0.95;fill-rule:nonzero;stroke:none;stroke-width:2.80365;stroke-linecap:butt;stroke-linejoin:miter;stroke-miterlimit:4;stroke-dasharray:none;stroke-dashoffset:0;stroke-opacity:1;color-rendering:auto;image-rendering:auto;shape-rendering:auto;text-rendering:auto;enable-background:accumulate;stop-color:#000000;stop-opacity:1" />
      <path
         id="path841"
         d="M 151.03516 14.847656 C 148.555 14.724039 146.04472 15.292393 143.85156 16.396484 C 139.46525 18.604668 136.16936 23.173618 137.04883 28.703125 L 137.0332 28.484375 L 137.0332 46.146484 L 97.673828 46.146484 L 97.443359 46.228516 C 93.93866 47.489862 91.652513 49.932503 91.535156 52.738281 C 91.417799 55.544059 93.64926 58.114234 97.503906 59.308594 L 97.707031 59.371094 L 97.917969 59.371094 L 137.04297 59.371094 C 137.08919 66.39378 136.86274 73.472434 137.18164 80.591797 L 137.18555 80.6875 L 137.20312 80.78125 C 138.20497 86.220807 142.72679 89.532018 147.58203 90.349609 C 152.43727 91.1672 157.85005 89.629874 160.93164 85.337891 L 160.79688 85.5 C 169.39104 76.699103 178.39832 68.196906 186.82031 59.109375 L 186.875 59.050781 L 186.92188 58.984375 C 188.9889 56.165294 189.25345 52.829391 188.38086 49.884766 C 187.50826 46.94014 185.57211 44.315343 183.1582 42.476562 L 183.29492 42.59375 C 174.90074 34.299798 166.72858 25.705227 158.12109 17.53125 L 158.08008 17.492188 L 158.03516 17.457031 C 155.96496 15.788222 153.51531 14.971273 151.03516 14.847656 z M 150.84375 17.652344 C 152.7897 17.742795 154.68411 18.371545 156.25 19.625 C 164.7658 27.715903 172.90888 36.273033 181.32422 44.587891 L 181.38867 44.652344 L 181.45898 44.707031 C 183.41298 46.195477 185.01768 48.401508 185.69336 50.681641 C 186.36559 52.950124 186.18219 55.217777 184.67578 57.292969 C 176.36293 66.254523 167.40904 74.715687 158.79102 83.541016 L 158.7168 83.617188 L 158.6543 83.703125 C 156.30495 86.975251 151.99833 88.249055 148.04883 87.583984 C 144.11929 86.922275 140.77406 84.469514 139.98242 80.330078 C 139.6588 72.942775 139.92765 65.469913 139.83594 57.951172 L 139.81836 56.566406 L 98.216797 56.566406 C 95.221847 55.594808 94.284631 54.1288 94.337891 52.855469 C 94.390965 51.586573 95.59287 49.961715 98.259766 48.949219 L 139.83594 48.949219 L 139.83594 28.373047 L 139.81836 28.263672 C 139.14329 24.019308 141.56876 20.685762 145.11133 18.902344 C 146.88261 18.010635 148.88822 17.561447 150.84375 17.652344 z M 148.56641 23.310547 L 148.56641 26.703125 L 148.56641 82.207031 L 150.96289 79.802734 C 159.61413 71.11793 168.26478 62.43285 176.91602 53.748047 L 177.90234 52.757812 L 176.91602 51.769531 C 168.26478 43.084757 159.61413 34.399619 150.96289 25.714844 L 148.56641 23.310547 z M 151.37109 30.097656 C 158.89528 37.65101 166.41917 45.204459 173.94336 52.757812 C 166.41885 60.311519 158.8956 67.866216 151.37109 75.419922 L 151.37109 30.097656 z M 180.72852 84.900391 C 176.0043 84.849367 170.81415 90.387593 173.53516 95.003906 L 173.59375 95.103516 L 173.66797 95.191406 C 179.86178 102.59764 186.57224 110.22758 185.96289 119.89648 L 185.95703 119.98438 L 185.96289 120.07422 C 186.33815 125.89776 186.32782 132.42298 184.89648 138.23242 C 183.46739 144.03276 180.68582 149.05959 175.47656 152.28516 C 167.22741 156.86847 157.15955 154.75888 147.26758 155.28906 L 147.3418 155.28711 L 129.83984 155.28711 C 129.79363 148.26446 130.01812 141.18769 129.69922 134.06836 L 129.69531 133.9707 L 129.67773 133.87695 C 128.6759 128.43739 124.15408 125.12618 119.29883 124.30859 C 114.44358 123.49101 109.03079 125.02831 105.94922 129.32031 L 106.08594 129.1582 C 97.491765 137.9592 88.482553 146.46316 80.060547 155.55078 L 80.005859 155.60938 L 79.958984 155.67383 C 77.891962 158.49292 77.627407 161.8288 78.5 164.77344 C 79.372593 167.71807 81.308742 170.34284 83.722656 172.18164 L 83.587891 172.06445 C 91.98207 180.35839 100.15411 188.95306 108.76172 197.12695 L 108.80273 197.16602 L 108.8457 197.20312 C 112.98621 200.54067 118.64493 200.46993 123.03125 198.26172 C 127.41757 196.05351 130.71161 191.48469 129.83203 185.95508 L 129.84961 186.17578 L 129.84961 168.51562 C 143.12174 168.38387 156.48912 168.91674 169.87695 168.08984 L 169.88672 168.08984 L 169.89648 168.08984 C 181.7443 167.19891 192.49115 159.06783 195.94141 147.55859 C 195.94165 147.55784 195.94311 147.5574 195.94336 147.55664 C 199.77157 135.73418 200.28017 123.07492 199.49219 110.92188 L 199.48633 110.83984 L 199.4707 110.75781 C 197.6599 100.99915 190.35067 94.073674 184.99219 87.0625 L 184.99023 87.058594 L 184.98828 87.056641 C 183.82738 85.55631 182.30325 84.917399 180.72852 84.900391 z M 180.34375 87.664062 C 181.24556 87.608699 182.11189 87.921559 182.76953 88.771484 C 188.30439 96.012265 195.07591 102.60738 196.69727 111.2168 C 197.46206 123.14021 196.93354 135.41856 193.26758 146.72266 L 193.26367 146.73633 L 193.25781 146.75195 C 190.16638 157.06778 180.38259 164.48857 169.68555 165.29297 C 156.03938 166.13443 142.25508 165.51963 128.42773 165.70898 L 127.04492 165.72852 L 127.04492 186.28516 L 127.0625 186.39453 C 127.73766 190.63904 125.31209 193.97438 121.76953 195.75781 C 118.23565 197.53688 113.77046 197.54627 110.63086 195.0332 C 102.11498 186.94242 93.973954 178.38517 85.558594 170.07031 L 85.494141 170.00781 L 85.421875 169.95312 C 83.467868 168.46466 81.865136 166.25866 81.189453 163.97852 C 80.516802 161.7086 80.699964 159.43758 82.208984 157.36133 C 90.520804 148.40117 99.475067 139.94128 108.0918 131.11719 L 108.16602 131.04297 L 108.22656 130.95508 C 110.5759 127.68294 114.88448 126.40915 118.83398 127.07422 C 122.76353 127.73592 126.1068 130.18868 126.89844 134.32812 C 127.22206 141.71544 126.95321 149.18829 127.04492 156.70703 L 127.0625 158.0918 L 147.38086 158.0918 L 147.41797 158.08984 C 156.78071 157.58803 167.48527 159.95927 176.875 154.7207 L 176.90234 154.70508 L 176.92773 154.68945 C 182.89231 151.00807 186.07313 145.17724 187.61914 138.90234 C 189.16515 132.62745 189.14363 125.85167 188.75977 119.89453 L 188.75977 120.07227 C 189.45056 109.11097 182.06987 100.86112 175.94141 93.541016 C 174.6586 91.273485 177.65278 87.829266 180.34375 87.664062 z M 118.31445 132.45117 L 88.980469 161.90039 L 89.964844 162.88867 C 98.616083 171.5735 107.26868 180.25853 115.91992 188.94336 L 118.31445 191.34766 L 118.31445 187.95508 L 118.31445 132.45117 z M 115.50977 139.24219 L 115.50977 184.55859 C 107.98619 177.0058 100.46108 169.45318 92.9375 161.90039 L 115.50977 139.24219 z "
         style="color:#000000;font-style:normal;font-variant:normal;font-weight:normal;font-stretch:normal;font-size:medium;line-height:normal;font-family:sans-serif;font-variant-ligatures:normal;font-variant-position:normal;font-variant-caps:normal;font-variant-numeric:normal;font-variant-alternates:normal;font-variant-east-asian:normal;font-feature-settings:normal;font-variation-settings:normal;text-indent:0;text-align:start;text-decoration:none;text-decoration-line:none;text-decoration-style:solid;text-decoration-color:#000000;letter-spacing:normal;word-spacing:normal;text-transform:none;writing-mode:lr-tb;direction:ltr;text-orientation:mixed;dominant-baseline:auto;baseline-shift:baseline;text-anchor:start;white-space:normal;shape-padding:0;shape-margin:0;inline-size:0;clip-rule:nonzero;display:inline;overflow:visible;visibility:visible;isolation:auto;mix-blend-mode:normal;color-interpolation:sRGB;color-interpolation-filters:linearRGB;solid-color:#000000;solid-opacity:1;vector-effect:none;fill:#000000;fill-opacity:0;fill-rule:nonzero;stroke:none;stroke-width:2.80365;stroke-linecap:butt;stroke-linejoin:miter;stroke-miterlimit:4;stroke-dasharray:none;stroke-dashoffset:0;stroke-opacity:1.0;color-rendering:auto;image-rendering:auto;shape-rendering:auto;text-rendering:auto;enable-background:accumulate;stop-color:#000000;stop-opacity:1;" />
    </g>
    <path
       style="fill:#ff0000;fill-opacity:0.94;stroke:#000000;stroke-width:5.506;stroke-miterlimit:4;stroke-dasharray:none;stroke-opacity:0.85"
       fill="currentColor"
       d="m 172.95836,-34.098812 -11.78523,-10.732905 a 12.145732,12.236972 9.0910019 0 0 -17.1613,0.887133 l -16.68736,18.597389 a 13.337532,13.437726 9.0909241 0 0 -2.97816,5.432661 L 120.41382,-5.7356012 92.914842,24.877487 C 88.14142,21.77101 82.953611,19.367315 77.354552,18.355257 64.526767,16.040268 51.933759,19.332504 43.683364,28.517238 A 31.294239,31.529325 9.0911011 0 0 36.630693,41.693782 C 34.700455,48.898149 28.437409,54.630725 21.288788,55.6778 12.344609,57.0091 4.1620207,60.946092 -1.9227728,67.764243 -18.382735,86.035846 -13.746479,117.18507 8.3199943,137.2702 c 22.0664527,20.08509 53.2861857,21.57186 69.7163477,3.31312 6.132333,-6.77853 9.196474,-15.366 9.622476,-24.5023 0.317169,-7.23203 5.353834,-14.10703 12.271975,-16.765214 A 31.35117,31.586684 9.0910479 0 0 112.2493,90.927482 c 8.24661,-9.184598 10.22959,-22.102883 6.67455,-34.700428 -1.55736,-5.523539 -4.45217,-10.487961 -8.0117,-14.973997 l 27.49176,-30.605044 13.60625,-5.3580942 a 13.337532,13.437726 9.0909241 0 0 5.07035,-3.527296 l 16.70647,-18.5944408 a 12.145732,12.236972 9.0910019 0 0 -0.82854,-17.267001 z M 67.057645,91.188863 A 18.218599,18.355459 9.0910307 1 1 84.366177,71.920206 18.218599,18.355459 9.0910307 0 1 67.057645,91.188863 Z"
       id="path2469" />
    <path
       style="fill:#ff0000;fill-opacity:0.94;stroke:#a9a9a9;stroke-width:12.2096;stroke-miterlimit:4;stroke-dasharray:none;stroke-opacity:1"
       d="m 378.88654,650.20661 -46.95613,-46.98805 47.47733,-47.44509 47.47734,-47.4451 v 94.43314 c 0,51.93823 -0.23454,94.43315 -0.5212,94.43315 -0.28666,0 -21.65146,-21.14463 -47.47734,-46.98805 z"
       id="path2817"
       transform="matrix(0.26458333,0,0,0.26458333,3.4546821,2.2749366)" />
    <path
       sodipodi:nodetypes="ccccccc"
       style="fill:#ff0000;fill-opacity:0.94;stroke:#a9a9a9;stroke-width:12.2096;stroke-miterlimit:4;stroke-dasharray:none;stroke-opacity:1"
       d="M 588.1643,188.68693 V 92.733069 l 47.97693,47.976931 47.97693,47.97693 -47.97693,47.97693 -47.97693,47.97693 z"
       id="path2819"
       transform="matrix(0.26458333,0,0,0.26458333,3.4546821,2.2749366)" />
    <path
       style="fill:#ff0000;fill-opacity:0.47;stroke:#000000;stroke-width:12.2096;stroke-miterlimit:4;stroke-dasharray:none;stroke-opacity:1"
       d=""
       id="path2821"
       transform="matrix(0.26458333,0,0,0.26458333,3.4546821,2.2749366)" />
  </g>
</svg>
